<svg width="24" height="24" viewBox="0 0 24 24" fill="none" xmlns="http://www.w3.org/2000/svg">
<path d="M20.4569 16.3629C19.173 15.2775 18.4367 13.6911 18.4367 12.0105V9.64295C18.4367 6.65462 16.2169 4.18083 13.3414 3.76644V2.84916C13.3414 2.37957 12.9609 2 12.4921 2C12.0234 2 11.6429 2.37957 11.6429 2.84916V3.76644C8.76658 4.18083 6.54765 6.65462 6.54765 9.64295V12.0105C6.54765 13.6911 5.81137 15.2775 4.51967 16.3696C4.18939 16.6524 4 17.0634 4 17.4981C4 18.3178 4.66661 18.9844 5.48608 18.9844H19.4981C20.3178 18.9844 20.9844 18.3178 20.9844 17.4981C20.9844 17.0634 20.795 16.6524 20.4569 16.3629Z" fill="#212529"/>
<path d="M12.4921 22.3811C14.0301 22.3811 15.3167 21.2847 15.6121 19.8335H9.37207C9.66767 21.2847 10.9542 22.3811 12.4921 22.3811Z" fill="#212529"/>
</svg>
