<svg width="60" height="60" viewBox="0 0 60 60" fill="none" xmlns="http://www.w3.org/2000/svg">
<path d="M60 30C60 46.5688 46.5688 60 30 60C13.4312 60 0 46.5688 0 30C0 13.4312 13.4312 0 30 0C46.5688 0 60 13.4312 60 30Z" fill="#FFEB00"/>
<path d="M60 30C60 13.4312 46.5688 0 30 0V60C46.5688 60 60 46.5688 60 30Z" fill="#FFBB00"/>
<path d="M45.2782 44.9608C36.922 36.2734 23.1409 36.2554 14.7595 44.9177C13.6975 46.0148 15.3706 47.6917 16.434 46.5922C23.9371 38.8381 36.1228 38.8585 43.6036 46.6354C44.6642 47.7387 46.337 46.0617 45.2782 44.9608Z" fill="#333333"/>
<path d="M14.7983 15.8057C12.3185 18.4585 10.244 21.4808 8.60595 24.7167C6.8566 28.1723 7.66658 32.3946 11.155 34.4387C14.3431 36.306 19.129 35.3425 20.877 31.8892C21.5165 30.6262 22.21 29.4013 22.9769 28.2108C23.3375 27.6519 23.7282 27.1137 24.1247 26.5804C22.902 28.2255 24.5264 26.1971 24.8465 25.8547C27.4898 23.0276 27.6533 18.6122 24.8465 15.8058C22.1783 13.1367 17.4431 12.9757 14.7983 15.8057Z" fill="#75CDDE"/>
<path d="M52.5369 27.3806C50.8097 23.3095 48.5227 19.642 45.6023 16.3123C43.0472 13.3985 38.157 13.7088 35.5535 16.3123C32.6818 19.184 33.0021 23.452 35.5535 26.3612C35.8064 26.643 36.0528 26.931 36.2929 27.2243C35.7833 26.5446 35.7694 26.5313 36.2508 27.1841C36.734 27.8439 37.1689 28.5374 37.5975 29.2328C38.6406 30.9231 39.4915 32.7274 40.2655 34.5536C41.7795 38.122 46.9704 38.8695 49.9875 37.1027C53.6431 34.9608 54.0491 30.9462 52.5369 27.3806Z" fill="#75CDDE"/>
<path d="M20.8815 24.3635C23.4836 24.3635 25.593 22.2541 25.593 19.652C25.593 17.0499 23.4836 14.9404 20.8815 14.9404C18.2793 14.9404 16.1699 17.0499 16.1699 19.652C16.1699 22.2541 18.2793 24.3635 20.8815 24.3635Z" fill="#333333"/>
<path d="M38.6983 24.3635C41.3005 24.3635 43.4099 22.2541 43.4099 19.652C43.4099 17.0499 41.3005 14.9404 38.6983 14.9404C36.0962 14.9404 33.9868 17.0499 33.9868 19.652C33.9868 22.2541 36.0962 24.3635 38.6983 24.3635Z" fill="#333333"/>
</svg>
