<svg width="24" height="24" viewBox="0 0 24 24" fill="none" xmlns="http://www.w3.org/2000/svg">
<g clip-path="url(#clip0_2309_722)">
<path d="M2.34375 13.4575C2.08502 13.4575 1.875 13.6675 1.875 13.9263C1.875 14.185 2.08502 14.395 2.34375 14.395C2.60248 14.395 2.8125 14.185 2.8125 13.9263C2.8125 13.6675 2.60248 13.4575 2.34375 13.4575Z" fill="#666666"/>
<path d="M21.5446 15.0832L17.1255 16.6024C17.1451 16.4937 17.1561 16.3827 17.1561 16.2701C17.1561 15.2363 16.3151 14.3951 15.2811 14.3951H12.2456C12.165 14.3951 12.0855 14.3744 12.0154 14.3348L9.5389 12.942C9.04927 12.666 8.49281 12.5201 7.92976 12.5201H4.60676C4.4134 11.9746 3.89228 11.5828 3.28126 11.5828H0.468751C0.209839 11.5828 0 11.7926 0 12.0515V20.4888C0 20.7478 0.209839 20.9576 0.468751 20.9576H3.28126C3.87836 20.9576 4.39033 20.5824 4.59358 20.0554C5.12422 20.1214 5.73817 20.2783 6.12397 20.5097L8.57539 21.9806C9.50411 22.538 10.5674 22.8326 11.6507 22.8326C12.5091 22.8326 13.3407 22.6524 14.1228 22.2972L22.8717 18.4448C23.8407 18.0517 24.3192 16.8892 23.7653 15.8645C23.3579 15.1105 22.4037 14.775 21.5446 15.0832ZM3.75001 19.5535C3.74891 19.811 3.53889 20.0201 3.28126 20.0201H0.937502V12.5203H3.28126C3.53962 12.5203 3.75001 12.7305 3.75001 12.989V19.5535ZM22.5156 17.5778C22.5107 17.5797 22.5057 17.5819 22.5008 17.5839C22.5008 17.5839 13.7388 21.4419 13.7371 21.4426C13.0771 21.7429 12.375 21.8951 11.6507 21.8951C10.7373 21.8951 9.84084 21.6468 9.05788 21.1768L6.60627 19.7059C6.08149 19.3911 5.33003 19.1992 4.68751 19.1223V13.4578H7.92976C8.33186 13.4578 8.7292 13.5618 9.07912 13.759L11.5556 15.1519C11.7655 15.2701 12.0042 15.3328 12.2456 15.3328H15.2811C15.798 15.3328 16.2186 15.7532 16.2186 16.2703C16.2186 16.7853 15.7978 17.2078 15.2811 17.2078H10.516C10.257 17.2078 10.0472 17.4176 10.0472 17.6765C10.0472 17.9353 10.257 18.1451 10.516 18.1451H15.2811C15.5885 18.1451 15.8912 18.0687 16.1598 17.9255C16.1598 17.9255 21.8572 15.967 21.8594 15.9663C22.2794 15.8147 22.7544 15.9656 22.9406 16.3102C23.2198 16.8267 22.9889 17.3883 22.5156 17.5778Z" fill="#666666"/>
<path d="M13.6521 12.5416C13.7404 12.618 13.8497 12.6561 13.9592 12.6561C14.0687 12.6561 14.1782 12.618 14.2663 12.5416C18.0908 9.22707 20.4565 7.54963 20.4565 4.94294C20.4565 2.8808 18.9966 1.17188 16.9457 1.17188C15.5987 1.17188 14.5673 1.94824 13.903 3.11335C13.2401 1.95081 12.2098 1.17188 10.8609 1.17188C9.29074 1.17188 7.97805 2.18939 7.51662 3.76392C7.44375 4.0124 7.5862 4.27277 7.83468 4.34565C8.08315 4.41852 8.34353 4.27607 8.41622 4.02759C8.75771 2.86231 9.71719 2.10938 10.8609 2.10938C12.1981 2.10938 13.1361 3.29682 13.4513 4.40241C13.5075 4.60547 13.6924 4.7461 13.903 4.7461C14.1137 4.7461 14.2985 4.60547 14.3547 4.40241C14.3611 4.37952 15.0122 2.10938 16.9457 2.10938C18.4127 2.10938 19.519 3.3274 19.519 4.94294C19.519 7.02815 17.4807 8.53145 13.9588 11.5681C11.813 9.7253 10.1085 8.42817 9.13967 7.15925C8.98257 6.95344 8.6885 6.91389 8.48269 7.07099C8.27688 7.2281 8.23751 7.52217 8.39443 7.72816C9.48648 9.1584 11.33 10.5288 13.6521 12.5416Z" fill="#666666"/>
<path d="M7.92188 5.30151C7.66315 5.30151 7.45312 5.51154 7.45312 5.77026C7.45312 6.02899 7.66315 6.23901 7.92188 6.23901C8.18061 6.23901 8.39063 6.02899 8.39063 5.77026C8.39063 5.51154 8.18061 5.30151 7.92188 5.30151Z" fill="#666666"/>
</g>
<defs>
<clipPath id="clip0_2309_722">
<rect width="24" height="24" fill="white"/>
</clipPath>
</defs>
</svg>
