<svg width="52" height="41" viewBox="0 0 52 41" fill="none" xmlns="http://www.w3.org/2000/svg">
<path d="M23 15V22.5H17V9L26 1.5L35 9V22.5H29V15H23Z" stroke="#666666" stroke-linecap="round" stroke-linejoin="round"/>
<path d="M4.69375 38H3.63906V30.4941H0.914454V29.5449H7.41836V30.4941H4.69375V38ZM7.38945 38V31.6836H8.35039V32.6211H8.44414C8.53789 32.3125 8.74883 32.0605 9.07695 31.8652C9.40508 31.6699 9.77813 31.5723 10.1961 31.5723C10.3875 31.5723 10.5555 31.582 10.7 31.6016V32.6094C10.5633 32.5703 10.3484 32.5508 10.0555 32.5508C9.575 32.5508 9.17852 32.6953 8.86602 32.9844C8.55352 33.2734 8.39727 33.6406 8.39727 34.0859V38H7.38945ZM13.2551 37.2266C13.7746 37.2266 14.2043 37.0762 14.5441 36.7754C14.8879 36.4746 15.0598 36.0977 15.0598 35.6445V35.0645L13.3605 35.1758C12.884 35.207 12.5344 35.3066 12.3117 35.4746C12.0891 35.6426 11.9777 35.8867 11.9777 36.207C11.9777 36.5234 12.0969 36.7734 12.3352 36.957C12.5734 37.1367 12.8801 37.2266 13.2551 37.2266ZM13.0676 38.1113C12.4465 38.1113 11.9348 37.9414 11.5324 37.6016C11.134 37.2578 10.9348 36.8008 10.9348 36.2305C10.9348 35.668 11.134 35.2266 11.5324 34.9062C11.9309 34.5859 12.4992 34.4043 13.2375 34.3613L15.0598 34.25V33.6758C15.0598 33.2852 14.9387 32.9863 14.6965 32.7793C14.4543 32.5723 14.0988 32.4688 13.6301 32.4688C13.2512 32.4688 12.9367 32.5371 12.6867 32.6738C12.4367 32.8105 12.2766 33.0039 12.2063 33.2539H11.1867C11.2531 32.75 11.5129 32.3438 11.966 32.0352C12.423 31.7266 12.9895 31.5723 13.6652 31.5723C14.4309 31.5723 15.0227 31.7578 15.4406 32.1289C15.8586 32.5 16.0676 33.0156 16.0676 33.6758V38H15.1066V37.0684H15.0129C14.8098 37.4043 14.5402 37.6621 14.2043 37.8418C13.8684 38.0215 13.4895 38.1113 13.0676 38.1113ZM17.2809 38V31.6836H18.2418V32.6797H18.3355C18.6715 31.9414 19.3043 31.5723 20.234 31.5723C20.941 31.5723 21.4859 31.7754 21.8688 32.1816C22.2516 32.584 22.443 33.1602 22.443 33.9102V38H21.4352V34.1562C21.4352 33.5898 21.3121 33.1699 21.066 32.8965C20.8238 32.6191 20.4508 32.4805 19.9469 32.4805C19.4391 32.4805 19.0348 32.6406 18.734 32.9609C18.4371 33.2773 18.2887 33.7109 18.2887 34.2617V38H17.2809ZM26.1934 37.0156C26.7754 37.0156 27.2324 36.8125 27.5645 36.4062C27.9004 35.9961 28.0684 35.4434 28.0684 34.748C28.0684 34.0566 27.9004 33.5059 27.5645 33.0957C27.2285 32.6855 26.7715 32.4805 26.1934 32.4805C25.6152 32.4805 25.166 32.6836 24.8457 33.0898C24.5254 33.4961 24.3652 34.0488 24.3652 34.748C24.3652 35.4473 24.5254 36 24.8457 36.4062C25.166 36.8125 25.6152 37.0156 26.1934 37.0156ZM26.2402 40.4258C25.4863 40.4258 24.875 40.2695 24.4062 39.957C23.9414 39.6445 23.6699 39.2246 23.5918 38.6973H24.6582C24.7129 38.959 24.8789 39.166 25.1562 39.3184C25.4336 39.4707 25.7949 39.5469 26.2402 39.5469C26.8066 39.5469 27.248 39.4141 27.5645 39.1484C27.8848 38.8867 28.0449 38.5234 28.0449 38.0586V36.8164H27.9512C27.752 37.1641 27.4805 37.4336 27.1367 37.625C26.793 37.8125 26.4043 37.9062 25.9707 37.9062C25.1582 37.9062 24.5137 37.6191 24.0371 37.0449C23.5605 36.4668 23.3223 35.7012 23.3223 34.748C23.3223 33.7949 23.5625 33.0273 24.043 32.4453C24.5234 31.8633 25.166 31.5723 25.9707 31.5723C26.4121 31.5723 26.8145 31.6738 27.1777 31.877C27.541 32.0762 27.8145 32.3457 27.998 32.6855H28.0918V31.6836H29.0527V38.1113C29.0527 38.8184 28.7988 39.3809 28.291 39.7988C27.7832 40.2168 27.0996 40.4258 26.2402 40.4258ZM38.2645 33.6172H37.2449C37.159 33.2852 36.9734 33.0137 36.6883 32.8027C36.407 32.5879 36.0496 32.4805 35.616 32.4805C35.0496 32.4805 34.5984 32.6914 34.2625 33.1133C33.9305 33.5352 33.7645 34.1035 33.7645 34.8184C33.7645 35.5449 33.9324 36.125 34.2684 36.5586C34.6043 36.9883 35.0535 37.2031 35.616 37.2031C36.0418 37.2031 36.3953 37.1074 36.6766 36.916C36.9617 36.7246 37.1512 36.4512 37.2449 36.0957H38.2645C38.1707 36.6934 37.8914 37.1797 37.4266 37.5547C36.9617 37.9258 36.3602 38.1113 35.6219 38.1113C34.7352 38.1113 34.0301 37.8145 33.5066 37.2207C32.9832 36.623 32.7215 35.8223 32.7215 34.8184C32.7215 33.834 32.9832 33.0469 33.5066 32.457C34.0301 31.8672 34.7332 31.5723 35.616 31.5723C36.3543 31.5723 36.9559 31.7656 37.4207 32.1523C37.8895 32.5391 38.1707 33.0273 38.2645 33.6172ZM39.1613 38V29.1758H40.1691V32.6797H40.2629C40.423 32.3242 40.6672 32.0508 40.9953 31.8594C41.3273 31.668 41.7316 31.5723 42.2082 31.5723C42.8801 31.5723 43.4113 31.7793 43.802 32.1934C44.1926 32.6035 44.3879 33.1758 44.3879 33.9102V38H43.3801V34.1562C43.3801 33.0391 42.8938 32.4805 41.9211 32.4805C41.3664 32.4805 40.9348 32.6426 40.6262 32.9668C40.3215 33.2871 40.1691 33.7188 40.1691 34.2617V38H39.1613ZM50.6871 31.6836V38H49.7262V37.0098H49.6324C49.4723 37.3652 49.2262 37.6387 48.8941 37.8301C48.5621 38.0176 48.1559 38.1113 47.6754 38.1113C46.9723 38.1113 46.4371 37.9102 46.0699 37.5078C45.7027 37.1055 45.5191 36.5273 45.5191 35.7734V31.6836H46.527V35.5273C46.527 36.1016 46.6402 36.5234 46.8668 36.793C47.0934 37.0586 47.4566 37.1914 47.9566 37.1914C48.5074 37.1914 48.9313 37.0371 49.2281 36.7285C49.5289 36.416 49.6793 35.9805 49.6793 35.4219V31.6836H50.6871ZM47.2652 29.4395V28.7188C47.4684 28.6367 47.7301 28.5957 48.0504 28.5957C48.4645 28.5957 48.7906 28.6934 49.0289 28.8887C49.2672 29.0801 49.3863 29.3418 49.3863 29.6738C49.3863 29.9434 49.2848 30.1973 49.0816 30.4355C48.8785 30.6738 48.6168 30.8457 48.2965 30.9512L47.857 30.3711C48.0484 30.3164 48.2047 30.2305 48.3258 30.1133C48.4508 29.9922 48.5133 29.8691 48.5133 29.7441C48.5133 29.6191 48.4566 29.5156 48.3434 29.4336C48.234 29.3477 48.0953 29.3047 47.9273 29.3047C47.6578 29.3047 47.4371 29.3496 47.2652 29.4395Z" fill="#666666"/>
</svg>
