<svg width="24" height="24" viewBox="0 0 24 24" fill="none" xmlns="http://www.w3.org/2000/svg">
<path d="M9.48584 6.37134H20.4573" stroke="#666666" stroke-width="1.20001" stroke-linecap="round" stroke-linejoin="round"/>
<path d="M9.48584 11.8542H16.343" stroke="#666666" stroke-width="1.20001" stroke-linecap="round" stroke-linejoin="round"/>
<path d="M9.48584 17.3428H20.4573" stroke="#666666" stroke-width="1.20001" stroke-linecap="round" stroke-linejoin="round"/>
<path fill-rule="evenodd" clip-rule="evenodd" d="M5.37006 7.74287C6.05578 7.74287 6.7415 7.05715 6.7415 6.37144C6.7415 5.68572 6.05578 5 5.37006 5C4.68435 5 4 5.68572 4 6.37144C4 7.05715 4.68435 7.74287 5.37006 7.74287ZM5.37006 13.2286C6.05578 13.2286 6.7415 12.5429 6.7415 11.8572C6.7415 11.1715 6.05578 10.4857 5.37006 10.4857C4.68435 10.4857 4 11.1715 4 11.8572C4 12.5429 4.68435 13.2286 5.37006 13.2286ZM5.37006 18.7144C6.05578 18.7144 6.7415 18.0286 6.7415 17.3429C6.7415 16.6572 6.05578 15.9715 5.37006 15.9715C4.68435 15.9715 4 16.6572 4 17.3429C4 18.0286 4.68435 18.7144 5.37006 18.7144Z" fill="#666666"/>
</svg>
