<svg width="60" height="60" viewBox="0 0 60 60" fill="none" xmlns="http://www.w3.org/2000/svg">
<path d="M30 59.9898C46.5685 59.9898 60 46.5629 60 29.9998C60 13.4368 46.5685 0.00976562 30 0.00976562C13.4315 0.00976562 0 13.4368 0 29.9998C0 46.5629 13.4315 59.9898 30 59.9898Z" fill="#FFEB00"/>
<path d="M29.9999 0.00976562C29.9964 0.00976562 29.9928 0.00988277 29.9893 0.00988277V59.9896C29.9928 59.9896 29.9964 59.9897 29.9999 59.9897C46.5684 59.9897 59.9999 46.5628 59.9999 29.9997C59.9999 13.4366 46.5684 0.00976562 29.9999 0.00976562Z" fill="#FFBB00"/>
<path d="M23.6252 27.0819C22.6548 27.0819 21.8681 26.2952 21.8681 25.3248C21.8681 23.927 20.7309 22.7897 19.3331 22.7897C17.9352 22.7897 16.798 23.927 16.798 25.3248C16.798 26.2952 16.0113 27.0819 15.0409 27.0819C14.0704 27.0819 13.2837 26.2952 13.2837 25.3248C13.2837 21.9892 15.9974 19.2754 19.3331 19.2754C22.6688 19.2754 25.3824 21.9892 25.3824 25.3248C25.3824 26.2952 24.5957 27.0819 23.6252 27.0819Z" fill="#132C63"/>
<path d="M44.7493 27.0819C43.7788 27.0819 42.9921 26.2952 42.9921 25.3248C42.9921 23.927 41.855 22.7897 40.4571 22.7897C39.0592 22.7897 37.9221 23.927 37.9221 25.3248C37.9221 26.2952 37.1353 27.0819 36.1649 27.0819C35.1945 27.0819 34.4077 26.2952 34.4077 25.3248C34.4077 21.9892 37.1214 19.2754 40.4571 19.2754C43.7928 19.2754 46.5064 21.9892 46.5064 25.3248C46.5064 26.2952 45.7197 27.0819 44.7493 27.0819Z" fill="#000F35"/>
<path d="M42.1753 9.66399H42.1758C37.2822 3.79784 45.2443 -3.07341 50.3195 1.98186C55.8509 -3.27174 63.1868 4.26583 58.4631 9.66399C58.3821 9.74868 53.4891 14.8631 51.3268 17.1232C50.7773 17.6977 49.8617 17.6977 49.312 17.1233C47.1704 14.8848 42.3601 9.85716 42.1753 9.66399Z" fill="#FF001E"/>
<path d="M1.42832 52.6262H1.42879C-3.13729 47.1525 4.29193 40.741 9.02763 45.4581C14.189 40.5559 21.0339 47.5893 16.6265 52.6262C16.5508 52.7053 11.9852 57.4774 9.9676 59.5862C9.45486 60.1223 8.60052 60.1223 8.08766 59.5863C6.08917 57.4975 1.60076 52.8064 1.42832 52.6262Z" fill="#FF001E"/>
<path d="M44.5778 52.5551H44.5783C40.6036 47.7904 47.0707 42.2092 51.193 46.3154C55.6858 42.0482 61.6443 48.1705 57.8077 52.5551C57.7419 52.624 53.7675 56.7781 52.0112 58.6137C51.5648 59.0803 50.8212 59.0803 50.3748 58.6138C48.6349 56.7955 44.7279 52.712 44.5778 52.5551Z" fill="#FF001E"/>
<path d="M29.9988 48.5574C25.7117 48.5574 21.7569 45.9845 19.6778 41.8427C19.429 41.347 19.4763 40.754 19.8007 40.304C20.125 39.8539 20.6723 39.6214 21.2216 39.701L21.3112 39.7138C27.0991 40.5528 32.9695 40.562 38.7596 39.741C39.3089 39.6634 39.8563 39.8973 40.1794 40.3485C40.5025 40.7998 40.5477 41.3933 40.2969 41.8884C38.2122 46.002 34.2663 48.5574 29.9988 48.5574Z" fill="#FF001E"/>
<path d="M38.7589 39.6998C35.8456 40.1128 32.9121 40.3152 29.979 40.3081V48.5157C29.9854 48.5157 29.9919 48.5161 29.9983 48.5161C34.2658 48.5161 38.2117 45.9607 40.2962 41.8471C40.5471 41.3521 40.5018 40.7585 40.1787 40.3073C39.8556 39.856 39.3081 39.6221 38.7589 39.6998Z" fill="#C30010"/>
<path d="M9.0274 45.4576C9.02494 45.4552 9.02248 45.4529 9.02002 45.4506V59.9876C9.36431 59.9896 9.70918 59.8559 9.96749 59.5859C11.9851 57.477 16.5507 52.7048 16.6264 52.6257C21.0337 47.5887 14.1888 40.5554 9.0274 45.4576Z" fill="#C30010"/>
<path d="M51.1935 46.3154C51.1913 46.3133 51.1891 46.3114 51.187 46.3092V58.9634C51.4867 58.9652 51.7869 58.8487 52.0117 58.6137C53.7679 56.778 57.7423 52.6239 57.8082 52.5551C61.6447 48.1705 55.6863 42.0482 51.1935 46.3154Z" fill="#C30010"/>
<path d="M50.3195 1.98186C50.3169 1.97928 50.3141 1.97694 50.3115 1.97424V17.5537C50.6805 17.5558 51.0501 17.4125 51.3268 17.1232C53.4891 14.8631 58.3821 9.74868 58.4632 9.66399C63.1867 4.26583 55.851 -3.27174 50.3195 1.98186Z" fill="#C30010"/>
</svg>
