<svg width="39" height="41" viewBox="0 0 39 41" fill="none" xmlns="http://www.w3.org/2000/svg">
<path d="M18.4858 6.37134H29.4573" stroke="#666666" stroke-width="1.20001" stroke-linecap="round" stroke-linejoin="round"/>
<path d="M18.4858 11.8542H25.343" stroke="#666666" stroke-width="1.20001" stroke-linecap="round" stroke-linejoin="round"/>
<path d="M18.4858 17.3428H29.4573" stroke="#666666" stroke-width="1.20001" stroke-linecap="round" stroke-linejoin="round"/>
<path fill-rule="evenodd" clip-rule="evenodd" d="M14.3701 7.74287C15.0558 7.74287 15.7415 7.05715 15.7415 6.37144C15.7415 5.68572 15.0558 5 14.3701 5C13.6843 5 13 5.68572 13 6.37144C13 7.05715 13.6843 7.74287 14.3701 7.74287ZM14.3701 13.2286C15.0558 13.2286 15.7415 12.5429 15.7415 11.8572C15.7415 11.1715 15.0558 10.4857 14.3701 10.4857C13.6843 10.4857 13 11.1715 13 11.8572C13 12.5429 13.6843 13.2286 14.3701 13.2286ZM14.3701 18.7144C15.0558 18.7144 15.7415 18.0286 15.7415 17.3429C15.7415 16.6572 15.0558 15.9715 14.3701 15.9715C13.6843 15.9715 13 16.6572 13 17.3429C13 18.0286 13.6843 18.7144 14.3701 18.7144Z" fill="#666666"/>
<path d="M4.63477 38.1992C3.43164 38.1992 2.48242 37.8047 1.78711 37.0156C1.0957 36.2266 0.75 35.1465 0.75 33.7754C0.75 32.4121 1.09766 31.334 1.79297 30.541C2.49219 29.7441 3.43945 29.3457 4.63477 29.3457C5.82227 29.3457 6.76367 29.7441 7.45898 30.541C8.1543 31.334 8.50195 32.4121 8.50195 33.7754C8.50195 34.6152 8.37109 35.3535 8.10938 35.9902C7.85156 36.627 7.48242 37.1191 7.00195 37.4668L8.07422 38.9551H6.89062L6.14648 37.9414C5.68945 38.1133 5.18555 38.1992 4.63477 38.1992ZM4.64062 37.2266C4.95703 37.2266 5.25781 37.1836 5.54297 37.0977L4.42383 35.5801H5.61914L6.38672 36.5996C6.71875 36.334 6.97266 35.959 7.14844 35.4746C7.32812 34.9863 7.41797 34.4199 7.41797 33.7754C7.41797 32.7129 7.16797 31.8711 6.66797 31.25C6.16797 30.6289 5.49023 30.3184 4.63477 30.3184C3.77148 30.3184 3.08789 30.6289 2.58398 31.25C2.08398 31.8711 1.83398 32.7129 1.83398 33.7754C1.83398 34.8418 2.08398 35.6836 2.58398 36.3008C3.08789 36.918 3.77344 37.2266 4.64062 37.2266ZM14.6664 31.6836V38H13.7055V37.0098H13.6117C13.4516 37.3652 13.2055 37.6387 12.8734 37.8301C12.5414 38.0176 12.1352 38.1113 11.6547 38.1113C10.9516 38.1113 10.4164 37.9102 10.0492 37.5078C9.68203 37.1055 9.49844 36.5273 9.49844 35.7734V31.6836H10.5063V35.5273C10.5063 36.1016 10.6195 36.5234 10.8461 36.793C11.0727 37.0586 11.4359 37.1914 11.9359 37.1914C12.4867 37.1914 12.9105 37.0371 13.2074 36.7285C13.5082 36.416 13.6586 35.9805 13.6586 35.4219V31.6836H14.6664ZM17.8602 37.2266C18.3797 37.2266 18.8094 37.0762 19.1492 36.7754C19.493 36.4746 19.6648 36.0977 19.6648 35.6445V35.0645L17.9656 35.1758C17.4891 35.207 17.1395 35.3066 16.9168 35.4746C16.6941 35.6426 16.5828 35.8867 16.5828 36.207C16.5828 36.5234 16.702 36.7734 16.9402 36.957C17.1785 37.1367 17.4852 37.2266 17.8602 37.2266ZM17.6727 38.1113C17.0516 38.1113 16.5398 37.9414 16.1375 37.6016C15.7391 37.2578 15.5398 36.8008 15.5398 36.2305C15.5398 35.668 15.7391 35.2266 16.1375 34.9062C16.5359 34.5859 17.1043 34.4043 17.8426 34.3613L19.6648 34.25V33.6758C19.6648 33.2852 19.5437 32.9863 19.3016 32.7793C19.0594 32.5723 18.7039 32.4688 18.2352 32.4688C17.8562 32.4688 17.5418 32.5371 17.2918 32.6738C17.0418 32.8105 16.8816 33.0039 16.8113 33.2539H15.7918C15.8582 32.75 16.118 32.3438 16.5711 32.0352C17.0281 31.7266 17.5945 31.5723 18.2703 31.5723C19.0359 31.5723 19.6277 31.7578 20.0457 32.1289C20.4637 32.5 20.6727 33.0156 20.6727 33.6758V38H19.7117V37.0684H19.618C19.4148 37.4043 19.1453 37.6621 18.8094 37.8418C18.4734 38.0215 18.0945 38.1113 17.6727 38.1113ZM17.4324 29.4395V28.7188C17.6355 28.6367 17.8973 28.5957 18.2176 28.5957C18.6316 28.5957 18.9578 28.6934 19.1961 28.8887C19.4344 29.0801 19.5535 29.3418 19.5535 29.6738C19.5535 29.9434 19.452 30.1973 19.2488 30.4355C19.0457 30.6738 18.784 30.8457 18.4637 30.9512L18.0242 30.3711C18.2156 30.3164 18.3719 30.2305 18.493 30.1133C18.618 29.9922 18.6805 29.8691 18.6805 29.7441C18.6805 29.6191 18.6238 29.5156 18.5105 29.4336C18.4012 29.3477 18.2625 29.3047 18.0945 29.3047C17.825 29.3047 17.6043 29.3496 17.4324 29.4395ZM21.8859 38V31.6836H22.8469V32.6797H22.9406C23.2766 31.9414 23.9094 31.5723 24.8391 31.5723C25.5461 31.5723 26.091 31.7754 26.4738 32.1816C26.8566 32.584 27.048 33.1602 27.048 33.9102V38H26.0402V34.1562C26.0402 33.5898 25.9172 33.1699 25.6711 32.8965C25.4289 32.6191 25.0559 32.4805 24.552 32.4805C24.0441 32.4805 23.6398 32.6406 23.3391 32.9609C23.0422 33.2773 22.8937 33.7109 22.8937 34.2617V38H21.8859ZM31.0391 38V29.1758H32.0469V38H31.0391ZM33.893 40.2852C33.7328 40.2852 33.5824 40.2734 33.4418 40.25V39.3887C33.5434 39.4082 33.684 39.418 33.8637 39.418C34.1566 39.418 34.3891 39.3398 34.5609 39.1836C34.7367 39.0273 34.891 38.7598 35.0238 38.3809L35.141 38.0059L32.8031 31.6836H33.893L35.6273 36.8809H35.7211L37.4496 31.6836H38.5219L36.0551 38.3867C35.7855 39.1172 35.4984 39.6152 35.1937 39.8809C34.8891 40.1504 34.4555 40.2852 33.893 40.2852ZM36.102 30.5996H34.9652L36.4418 28.6191H37.7309L36.102 30.5996Z" fill="#666666"/>
</svg>
