<svg width="18" height="18" viewBox="0 0 18 18" fill="none" xmlns="http://www.w3.org/2000/svg">
<path d="M8.66667 0C3.90722 0 0 3.61589 0 8.09476C0 10.4809 1.13389 12.6011 2.88889 14.0778V17.3333L6.09411 15.7714C6.90878 16.0107 7.761 16.1895 8.66667 16.1895C13.4261 16.1895 17.3333 12.5736 17.3333 8.09476C17.3333 3.61589 13.4261 0 8.66667 0ZM8.66667 1.40778C12.6815 1.40778 15.8889 4.41059 15.8889 8.09476C15.8889 11.7789 12.6815 14.7817 8.66667 14.7817C7.80361 14.7817 6.97956 14.6219 6.20678 14.3636L5.91356 14.2756L4.33333 15.0457V13.4619L4.0625 13.2416C2.45989 12.0105 1.44444 10.1656 1.44444 8.09476C1.44444 4.41059 4.65183 1.40778 8.66667 1.40778ZM7.85417 5.87327L3.49844 10.3606L7.40278 8.24891L9.47917 10.4267L13.7901 5.87257L9.97533 7.96313L7.85417 5.87327Z" fill="#666666"/>
</svg>
