<svg width="45" height="41" viewBox="0 0 45 41" fill="none" xmlns="http://www.w3.org/2000/svg">
<path d="M24.6667 4C19.9072 4 16 7.61589 16 12.0948C16 14.4809 17.1339 16.6011 18.8889 18.0778V21.3333L22.0941 19.7714C22.9088 20.0107 23.761 20.1895 24.6667 20.1895C29.4261 20.1895 33.3333 16.5736 33.3333 12.0948C33.3333 7.61589 29.4261 4 24.6667 4ZM24.6667 5.40778C28.6815 5.40778 31.8889 8.41059 31.8889 12.0948C31.8889 15.7789 28.6815 18.7817 24.6667 18.7817C23.8036 18.7817 22.9796 18.6219 22.2068 18.3636L21.9136 18.2756L20.3333 19.0457V17.4619L20.0625 17.2416C18.4599 16.0105 17.4444 14.1656 17.4444 12.0948C17.4444 8.41059 20.6518 5.40778 24.6667 5.40778ZM23.8542 9.87327L19.4984 14.3606L23.4028 12.2489L25.4792 14.4267L29.7901 9.87257L25.9753 11.9631L23.8542 9.87327Z" fill="#666666"/>
<path d="M4.33008 38H3.27539V30.4941H0.550781V29.5449H7.05469V30.4941H4.33008V38ZM7.81094 38V31.6836H8.81875V38H7.81094ZM8.81289 30.1953C8.67617 30.332 8.51016 30.4004 8.31484 30.4004C8.11953 30.4004 7.95352 30.332 7.8168 30.1953C7.68008 30.0547 7.61172 29.8887 7.61172 29.6973C7.61172 29.5059 7.68008 29.3418 7.8168 29.2051C7.95352 29.0645 8.11953 28.9941 8.31484 28.9941C8.51016 28.9941 8.67617 29.0645 8.81289 29.2051C8.94961 29.3418 9.01797 29.5059 9.01797 29.6973C9.01797 29.8887 8.94961 30.0547 8.81289 30.1953ZM10.0906 38V31.6836H11.0516V32.6797H11.1453C11.4812 31.9414 12.1141 31.5723 13.0437 31.5723C13.7508 31.5723 14.2957 31.7754 14.6785 32.1816C15.0613 32.584 15.2527 33.1602 15.2527 33.9102V38H14.2449V34.1562C14.2449 33.5898 14.1219 33.1699 13.8758 32.8965C13.6336 32.6191 13.2605 32.4805 12.7566 32.4805C12.2488 32.4805 11.8445 32.6406 11.5437 32.9609C11.2469 33.2773 11.0984 33.7109 11.0984 34.2617V38H10.0906ZM19.1852 38V31.6836H20.1461V32.6797H20.2398C20.5758 31.9414 21.2086 31.5723 22.1383 31.5723C22.8453 31.5723 23.3902 31.7754 23.773 32.1816C24.1559 32.584 24.3473 33.1602 24.3473 33.9102V38H23.3395V34.1562C23.3395 33.5898 23.2164 33.1699 22.9703 32.8965C22.7281 32.6191 22.3551 32.4805 21.8512 32.4805C21.3434 32.4805 20.9391 32.6406 20.6383 32.9609C20.3414 33.2773 20.193 33.7109 20.193 34.2617V38H19.1852ZM25.6016 38V29.1758H26.6094V32.6797H26.7031C26.8633 32.3242 27.1074 32.0508 27.4355 31.8594C27.7676 31.668 28.1719 31.5723 28.6484 31.5723C29.3203 31.5723 29.8516 31.7793 30.2422 32.1934C30.6328 32.6035 30.8281 33.1758 30.8281 33.9102V38H29.8203V34.1562C29.8203 33.0391 29.334 32.4805 28.3613 32.4805C27.8066 32.4805 27.375 32.6426 27.0664 32.9668C26.7617 33.2871 26.6094 33.7188 26.6094 34.2617V38H25.6016ZM33.9633 37.2266C34.4828 37.2266 34.9125 37.0762 35.2523 36.7754C35.5961 36.4746 35.768 36.0977 35.768 35.6445V35.0645L34.0688 35.1758C33.5922 35.207 33.2426 35.3066 33.0199 35.4746C32.7973 35.6426 32.6859 35.8867 32.6859 36.207C32.6859 36.5234 32.8051 36.7734 33.0434 36.957C33.2816 37.1367 33.5883 37.2266 33.9633 37.2266ZM33.7758 38.1113C33.1547 38.1113 32.643 37.9414 32.2406 37.6016C31.8422 37.2578 31.643 36.8008 31.643 36.2305C31.643 35.668 31.8422 35.2266 32.2406 34.9062C32.6391 34.5859 33.2074 34.4043 33.9457 34.3613L35.768 34.25V33.6758C35.768 33.2852 35.6469 32.9863 35.4047 32.7793C35.1625 32.5723 34.807 32.4688 34.3383 32.4688C33.9594 32.4688 33.6449 32.5371 33.3949 32.6738C33.1449 32.8105 32.9848 33.0039 32.9145 33.2539H31.8949C31.9613 32.75 32.2211 32.3438 32.6742 32.0352C33.1313 31.7266 33.6977 31.5723 34.3734 31.5723C35.1391 31.5723 35.7309 31.7578 36.1488 32.1289C36.5668 32.5 36.7758 33.0156 36.7758 33.6758V38H35.8148V37.0684H35.7211C35.518 37.4043 35.2484 37.6621 34.9125 37.8418C34.5766 38.0215 34.1977 38.1113 33.7758 38.1113ZM33.7289 28.7715L34.8422 27.0254H36.0023L34.725 28.7715H33.7289ZM36.5063 28.8828C36.5063 29.4492 36.3148 29.9121 35.932 30.2715C35.5492 30.627 35.0297 30.8047 34.3734 30.8047C33.7172 30.8047 33.1977 30.627 32.8148 30.2715C32.432 29.9121 32.2406 29.4492 32.2406 28.8828H33.143C33.143 29.2305 33.2504 29.5137 33.4652 29.7324C33.684 29.9473 33.9867 30.0547 34.3734 30.0547C34.7602 30.0547 35.0609 29.9473 35.2758 29.7324C35.4945 29.5137 35.6039 29.2305 35.6039 28.8828H36.5063ZM37.9891 38V31.6836H38.95V32.6797H39.0438C39.3797 31.9414 40.0125 31.5723 40.9422 31.5723C41.6492 31.5723 42.1941 31.7754 42.577 32.1816C42.9598 32.584 43.1512 33.1602 43.1512 33.9102V38H42.1434V34.1562C42.1434 33.5898 42.0203 33.1699 41.7742 32.8965C41.532 32.6191 41.159 32.4805 40.6551 32.4805C40.1473 32.4805 39.743 32.6406 39.4422 32.9609C39.1453 33.2773 38.9969 33.7109 38.9969 34.2617V38H37.9891Z" fill="#666666"/>
</svg>
