<svg width="57" height="41" viewBox="0 0 57 41" fill="none" xmlns="http://www.w3.org/2000/svg">
<g clip-path="url(#clip0_2098_721)">
<path d="M18.3438 13.4575C18.085 13.4575 17.875 13.6675 17.875 13.9263C17.875 14.185 18.085 14.395 18.3438 14.395C18.6025 14.395 18.8125 14.185 18.8125 13.9263C18.8125 13.6675 18.6025 13.4575 18.3438 13.4575Z" fill="#666666"/>
<path d="M37.5446 15.0832L33.1255 16.6024C33.1451 16.4937 33.1561 16.3827 33.1561 16.2701C33.1561 15.2363 32.3151 14.3951 31.2811 14.3951H28.2456C28.165 14.3951 28.0855 14.3744 28.0154 14.3348L25.5389 12.942C25.0493 12.666 24.4928 12.5201 23.9298 12.5201H20.6068C20.4134 11.9746 19.8923 11.5828 19.2813 11.5828H16.4688C16.2098 11.5828 16 11.7926 16 12.0515V20.4888C16 20.7478 16.2098 20.9576 16.4688 20.9576H19.2813C19.8784 20.9576 20.3903 20.5824 20.5936 20.0554C21.1242 20.1214 21.7382 20.2783 22.124 20.5097L24.5754 21.9806C25.5041 22.538 26.5674 22.8326 27.6507 22.8326C28.5091 22.8326 29.3407 22.6524 30.1228 22.2972L38.8717 18.4448C39.8407 18.0517 40.3192 16.8892 39.7653 15.8645C39.3579 15.1105 38.4037 14.775 37.5446 15.0832ZM19.75 19.5535C19.7489 19.811 19.5389 20.0201 19.2813 20.0201H16.9375V12.5203H19.2813C19.5396 12.5203 19.75 12.7305 19.75 12.989V19.5535ZM38.5156 17.5778C38.5107 17.5797 38.5057 17.5819 38.5008 17.5839C38.5008 17.5839 29.7388 21.4419 29.7371 21.4426C29.0771 21.7429 28.375 21.8951 27.6507 21.8951C26.7373 21.8951 25.8408 21.6468 25.0579 21.1768L22.6063 19.7059C22.0815 19.3911 21.33 19.1992 20.6875 19.1223V13.4578H23.9298C24.3319 13.4578 24.7292 13.5618 25.0791 13.759L27.5556 15.1519C27.7655 15.2701 28.0042 15.3328 28.2456 15.3328H31.2811C31.798 15.3328 32.2186 15.7532 32.2186 16.2703C32.2186 16.7853 31.7978 17.2078 31.2811 17.2078H26.516C26.257 17.2078 26.0472 17.4176 26.0472 17.6765C26.0472 17.9353 26.257 18.1451 26.516 18.1451H31.2811C31.5885 18.1451 31.8912 18.0687 32.1598 17.9255C32.1598 17.9255 37.8572 15.967 37.8594 15.9663C38.2794 15.8147 38.7544 15.9656 38.9406 16.3102C39.2198 16.8267 38.9889 17.3883 38.5156 17.5778Z" fill="#666666"/>
<path d="M29.6521 12.5416C29.7404 12.618 29.8497 12.6561 29.9592 12.6561C30.0687 12.6561 30.1782 12.618 30.2663 12.5416C34.0908 9.22707 36.4565 7.54963 36.4565 4.94294C36.4565 2.8808 34.9966 1.17188 32.9457 1.17188C31.5987 1.17188 30.5673 1.94824 29.903 3.11335C29.2401 1.95081 28.2098 1.17188 26.8609 1.17188C25.2907 1.17188 23.9781 2.18939 23.5166 3.76392C23.4437 4.0124 23.5862 4.27277 23.8347 4.34565C24.0832 4.41852 24.3435 4.27607 24.4162 4.02759C24.7577 2.86231 25.7172 2.10938 26.8609 2.10938C28.1981 2.10938 29.1361 3.29682 29.4513 4.40241C29.5075 4.60547 29.6924 4.7461 29.903 4.7461C30.1137 4.7461 30.2985 4.60547 30.3547 4.40241C30.3611 4.37952 31.0122 2.10938 32.9457 2.10938C34.4127 2.10938 35.519 3.3274 35.519 4.94294C35.519 7.02815 33.4807 8.53145 29.9588 11.5681C27.813 9.7253 26.1085 8.42817 25.1397 7.15925C24.9826 6.95344 24.6885 6.91389 24.4827 7.07099C24.2769 7.2281 24.2375 7.52217 24.3944 7.72816C25.4865 9.1584 27.33 10.5288 29.6521 12.5416Z" fill="#666666"/>
<path d="M23.9219 5.30151C23.6631 5.30151 23.4531 5.51154 23.4531 5.77026C23.4531 6.02899 23.6631 6.23901 23.9219 6.23901C24.1806 6.23901 24.3906 6.02899 24.3906 5.77026C24.3906 5.51154 24.1806 5.30151 23.9219 5.30151Z" fill="#666666"/>
</g>
<path d="M4.49844 38.1992C3.35 38.1992 2.43984 37.8027 1.76797 37.0098C1.1 36.2168 0.766016 35.1387 0.766016 33.7754C0.766016 32.4121 1.1 31.334 1.76797 30.541C2.43594 29.7441 3.34414 29.3457 4.49258 29.3457C5.3832 29.3457 6.14492 29.5996 6.77773 30.1074C7.41055 30.6152 7.78945 31.2773 7.91445 32.0938H6.84219C6.70156 31.5469 6.42031 31.1152 5.99844 30.7988C5.57656 30.4785 5.07461 30.3184 4.49258 30.3184C3.68008 30.3184 3.03555 30.6289 2.55898 31.25C2.08633 31.8711 1.85 32.7129 1.85 33.7754C1.85 34.8379 2.08828 35.6797 2.56484 36.3008C3.04141 36.918 3.68594 37.2266 4.49844 37.2266C5.08828 37.2266 5.59219 37.0859 6.01016 36.8047C6.43203 36.5195 6.70938 36.1328 6.84219 35.6445H7.91445C7.77383 36.4219 7.39297 37.043 6.77188 37.5078C6.15469 37.9688 5.39688 38.1992 4.49844 38.1992ZM13.6277 37.2383C13.1082 37.8203 12.3992 38.1113 11.5008 38.1113C10.6023 38.1113 9.89141 37.8203 9.36797 37.2383C8.84844 36.6523 8.58867 35.8535 8.58867 34.8418C8.58867 33.8262 8.84844 33.0273 9.36797 32.4453C9.8875 31.8633 10.5984 31.5723 11.5008 31.5723C12.4031 31.5723 13.1141 31.8633 13.6336 32.4453C14.1531 33.0273 14.4129 33.8262 14.4129 34.8418C14.4129 35.8535 14.1512 36.6523 13.6277 37.2383ZM10.118 36.5879C10.4422 36.998 10.9031 37.2031 11.5008 37.2031C12.0984 37.2031 12.5594 36.998 12.8836 36.5879C13.2078 36.1738 13.3699 35.5918 13.3699 34.8418C13.3699 34.0918 13.2078 33.5117 12.8836 33.1016C12.5594 32.6875 12.0984 32.4805 11.5008 32.4805C10.9031 32.4805 10.4422 32.6875 10.118 33.1016C9.79375 33.5117 9.63164 34.0918 9.63164 34.8418C9.63164 35.5918 9.79375 36.1738 10.118 36.5879ZM12.0926 28.8125L13.7449 30.8047H12.5848L11.5477 29.4746H11.4539L10.4168 30.8047H9.25664L10.909 28.8125H12.0926ZM11.9988 40.1445C11.8621 40.2852 11.6961 40.3555 11.5008 40.3555C11.3055 40.3555 11.1375 40.2852 10.9969 40.1445C10.8602 40.0078 10.7918 39.8418 10.7918 39.6465C10.7918 39.4512 10.8602 39.2832 10.9969 39.1426C11.1375 39.0059 11.3055 38.9375 11.5008 38.9375C11.6961 38.9375 11.8621 39.0059 11.9988 39.1426C12.1395 39.2832 12.2098 39.4512 12.2098 39.6465C12.2098 39.8418 12.1395 40.0078 11.9988 40.1445ZM15.3449 38V31.6836H16.3059V32.6797H16.3996C16.7355 31.9414 17.3684 31.5723 18.298 31.5723C19.0051 31.5723 19.55 31.7754 19.9328 32.1816C20.3156 32.584 20.507 33.1602 20.507 33.9102V38H19.4992V34.1562C19.4992 33.5898 19.3762 33.1699 19.1301 32.8965C18.8879 32.6191 18.5148 32.4805 18.0109 32.4805C17.5031 32.4805 17.0988 32.6406 16.798 32.9609C16.5012 33.2773 16.3527 33.7109 16.3527 34.2617V38H15.3449ZM24.2574 37.0156C24.8395 37.0156 25.2965 36.8125 25.6285 36.4062C25.9645 35.9961 26.1324 35.4434 26.1324 34.748C26.1324 34.0566 25.9645 33.5059 25.6285 33.0957C25.2926 32.6855 24.8355 32.4805 24.2574 32.4805C23.6793 32.4805 23.2301 32.6836 22.9098 33.0898C22.5895 33.4961 22.4293 34.0488 22.4293 34.748C22.4293 35.4473 22.5895 36 22.9098 36.4062C23.2301 36.8125 23.6793 37.0156 24.2574 37.0156ZM24.3043 40.4258C23.5504 40.4258 22.9391 40.2695 22.4703 39.957C22.0055 39.6445 21.734 39.2246 21.6559 38.6973H22.7223C22.777 38.959 22.943 39.166 23.2203 39.3184C23.4977 39.4707 23.859 39.5469 24.3043 39.5469C24.8707 39.5469 25.3121 39.4141 25.6285 39.1484C25.9488 38.8867 26.109 38.5234 26.109 38.0586V36.8164H26.0152C25.816 37.1641 25.5445 37.4336 25.2008 37.625C24.857 37.8125 24.4684 37.9062 24.0348 37.9062C23.2223 37.9062 22.5777 37.6191 22.1012 37.0449C21.6246 36.4668 21.3863 35.7012 21.3863 34.748C21.3863 33.7949 21.6266 33.0273 22.107 32.4453C22.5875 31.8633 23.2301 31.5723 24.0348 31.5723C24.4762 31.5723 24.8785 31.6738 25.2418 31.877C25.6051 32.0762 25.8785 32.3457 26.0621 32.6855H26.1559V31.6836H27.1168V38.1113C27.1168 38.8184 26.8629 39.3809 26.3551 39.7988C25.8473 40.2168 25.1637 40.4258 24.3043 40.4258ZM33.6742 37.2031C34.2484 37.2031 34.7016 36.9922 35.0336 36.5703C35.3656 36.1484 35.5316 35.5723 35.5316 34.8418C35.5316 34.1191 35.3637 33.5449 35.0277 33.1191C34.6957 32.6934 34.2445 32.4805 33.6742 32.4805C33.1 32.4805 32.6488 32.6914 32.3207 33.1133C31.9926 33.5312 31.8285 34.1074 31.8285 34.8418C31.8285 35.5801 31.9906 36.1582 32.3148 36.5762C32.643 36.9941 33.0961 37.2031 33.6742 37.2031ZM37.3598 29.791V30.5176H36.516V38H35.5551V36.9922H35.4613C35.2621 37.3438 34.9848 37.6191 34.6293 37.8184C34.2738 38.0137 33.8773 38.1113 33.4398 38.1113C32.6313 38.1113 31.9867 37.8145 31.5063 37.2207C31.0258 36.627 30.7855 35.834 30.7855 34.8418C30.7855 33.8535 31.0258 33.0625 31.5063 32.4688C31.9906 31.8711 32.6352 31.5723 33.4398 31.5723C33.8813 31.5723 34.2758 31.6719 34.6234 31.8711C34.975 32.0664 35.2406 32.3359 35.4203 32.6797H35.5082V30.5176H33.9848V29.791H35.5082V29.1758H36.516V29.791H37.3598ZM42.5457 37.2383C42.0262 37.8203 41.3172 38.1113 40.4187 38.1113C39.5203 38.1113 38.8094 37.8203 38.2859 37.2383C37.7664 36.6523 37.5066 35.8535 37.5066 34.8418C37.5066 33.8262 37.7664 33.0273 38.2859 32.4453C38.8055 31.8633 39.5164 31.5723 40.4187 31.5723C41.3211 31.5723 42.032 31.8633 42.5516 32.4453C43.0711 33.0273 43.3309 33.8262 43.3309 34.8418C43.3309 35.8535 43.0691 36.6523 42.5457 37.2383ZM39.0359 36.5879C39.3602 36.998 39.8211 37.2031 40.4187 37.2031C41.0164 37.2031 41.4773 36.998 41.8016 36.5879C42.1258 36.1738 42.2879 35.5918 42.2879 34.8418C42.2879 34.0918 42.1258 33.5117 41.8016 33.1016C41.4773 32.6875 41.0164 32.4805 40.4187 32.4805C39.8211 32.4805 39.3602 32.6875 39.0359 33.1016C38.7117 33.5117 38.5496 34.0918 38.5496 34.8418C38.5496 35.5918 38.7117 36.1738 39.0359 36.5879ZM41.0105 28.9297L42.6629 30.8047H41.491L40.4656 29.5918H40.3719L39.3465 30.8047H38.1746L39.827 28.9297H41.0105ZM42.8914 28.7715H41.8953L40.618 27.0254H41.7781L42.8914 28.7715ZM44.2629 38V31.6836H45.2238V32.6797H45.3176C45.6535 31.9414 46.2863 31.5723 47.216 31.5723C47.923 31.5723 48.468 31.7754 48.8508 32.1816C49.2336 32.584 49.425 33.1602 49.425 33.9102V38H48.4172V34.1562C48.4172 33.5898 48.2941 33.1699 48.048 32.8965C47.8059 32.6191 47.4328 32.4805 46.9289 32.4805C46.4211 32.4805 46.0168 32.6406 45.716 32.9609C45.4191 33.2773 45.2707 33.7109 45.2707 34.2617V38H44.2629ZM53.1754 37.0156C53.7574 37.0156 54.2145 36.8125 54.5465 36.4062C54.8824 35.9961 55.0504 35.4434 55.0504 34.748C55.0504 34.0566 54.8824 33.5059 54.5465 33.0957C54.2105 32.6855 53.7535 32.4805 53.1754 32.4805C52.5973 32.4805 52.148 32.6836 51.8277 33.0898C51.5074 33.4961 51.3473 34.0488 51.3473 34.748C51.3473 35.4473 51.5074 36 51.8277 36.4062C52.148 36.8125 52.5973 37.0156 53.1754 37.0156ZM53.2223 40.4258C52.4684 40.4258 51.857 40.2695 51.3883 39.957C50.9234 39.6445 50.652 39.2246 50.5738 38.6973H51.6402C51.6949 38.959 51.8609 39.166 52.1383 39.3184C52.4156 39.4707 52.777 39.5469 53.2223 39.5469C53.7887 39.5469 54.2301 39.4141 54.5465 39.1484C54.8668 38.8867 55.027 38.5234 55.027 38.0586V36.8164H54.9332C54.734 37.1641 54.4625 37.4336 54.1188 37.625C53.775 37.8125 53.3863 37.9062 52.9527 37.9062C52.1402 37.9062 51.4957 37.6191 51.0191 37.0449C50.5426 36.4668 50.3043 35.7012 50.3043 34.748C50.3043 33.7949 50.5445 33.0273 51.025 32.4453C51.5055 31.8633 52.148 31.5723 52.9527 31.5723C53.3941 31.5723 53.7965 31.6738 54.1598 31.877C54.523 32.0762 54.7965 32.3457 54.9801 32.6855H55.0738V31.6836H56.0348V38.1113C56.0348 38.8184 55.7809 39.3809 55.273 39.7988C54.7652 40.2168 54.0816 40.4258 53.2223 40.4258Z" fill="#666666"/>
<defs>
<clipPath id="clip0_2098_721">
<rect width="24" height="24" fill="white" transform="translate(16)"/>
</clipPath>
</defs>
</svg>
