<svg width="21" height="20" viewBox="0 0 21 20" fill="none" xmlns="http://www.w3.org/2000/svg">
<path d="M20.7133 8.4801L18.48 7.81344C18.3256 7.27431 18.1132 6.7535 17.8466 6.2601L18.94 4.21344C18.981 4.13618 18.996 4.04776 18.9828 3.96129C18.9696 3.87482 18.9289 3.79492 18.8666 3.73344L17.2733 2.13344C17.2118 2.07121 17.1319 2.03048 17.0455 2.01727C16.959 2.00406 16.8706 2.01908 16.7933 2.0601L14.76 3.14677C14.2617 2.86721 13.7341 2.64363 13.1866 2.4801L12.52 0.273436C12.4918 0.192113 12.4385 0.121835 12.3678 0.0727166C12.2971 0.0235985 12.2127 -0.00182616 12.1266 0.000102112H9.87331C9.78674 0.000505162 9.70256 0.0285251 9.63301 0.0800842C9.56347 0.131643 9.51219 0.204051 9.48665 0.286769L8.81998 2.48677C8.26799 2.64942 7.73582 2.87302 7.23331 3.15344L5.23331 2.07344C5.15606 2.03241 5.06764 2.01739 4.98117 2.0306C4.8947 2.04381 4.81479 2.08455 4.75331 2.14677L3.13331 3.72677C3.07109 3.78825 3.03035 3.86815 3.01714 3.95462C3.00393 4.04109 3.01896 4.12951 3.05998 4.20677L4.13998 6.20677C3.86002 6.70716 3.63643 7.23707 3.47331 7.78677L1.26665 8.45344C1.18393 8.47898 1.11152 8.53026 1.05996 8.5998C1.0084 8.66935 0.980384 8.75353 0.97998 8.8401V11.0934C0.980384 11.18 1.0084 11.2642 1.05996 11.3337C1.11152 11.4033 1.18393 11.4546 1.26665 11.4801L3.48665 12.1468C3.65154 12.6873 3.8751 13.2082 4.15331 13.7001L3.05998 15.7934C3.01896 15.8707 3.00393 15.9591 3.01714 16.0456C3.03035 16.1321 3.07109 16.212 3.13331 16.2734L4.72665 17.8668C4.78813 17.929 4.86803 17.9697 4.9545 17.9829C5.04097 17.9961 5.12939 17.9811 5.20665 17.9401L7.26665 16.8401C7.75396 17.1031 8.26799 17.3131 8.79998 17.4668L9.46665 19.7134C9.49219 19.7962 9.54347 19.8686 9.61301 19.9201C9.68256 19.9717 9.76674 19.9997 9.85331 20.0001H12.1066C12.1932 19.9997 12.2774 19.9717 12.3469 19.9201C12.4165 19.8686 12.4678 19.7962 12.4933 19.7134L13.16 17.4601C13.6874 17.3057 14.197 17.0956 14.68 16.8334L16.7533 17.9401C16.8306 17.9811 16.919 17.9961 17.0055 17.9829C17.0919 17.9697 17.1718 17.929 17.2333 17.8668L18.8266 16.2734C18.8889 16.212 18.9296 16.1321 18.9428 16.0456C18.956 15.9591 18.941 15.8707 18.9 15.7934L17.7933 13.7268C18.0582 13.2419 18.2705 12.7301 18.4266 12.2001L20.6733 11.5334C20.756 11.5079 20.8284 11.4566 20.88 11.3871C20.9316 11.3175 20.9596 11.2333 20.96 11.1468V8.87344C20.9639 8.79054 20.9424 8.70842 20.8983 8.63811C20.8542 8.5678 20.7897 8.51266 20.7133 8.4801ZM11 13.6668C10.2748 13.6668 9.56587 13.4517 8.96289 13.0488C8.35991 12.6459 7.88994 12.0733 7.61242 11.4033C7.3349 10.7333 7.26229 9.99604 7.40377 9.28477C7.54525 8.57351 7.89446 7.92017 8.40726 7.40738C8.92005 6.89459 9.57339 6.54537 10.2846 6.40389C10.9959 6.26241 11.7332 6.33502 12.4032 6.61254C13.0731 6.89007 13.6458 7.36003 14.0487 7.96301C14.4516 8.56599 14.6666 9.2749 14.6666 10.0001C14.6666 10.9726 14.2803 11.9052 13.5927 12.5928C12.9051 13.2805 11.9724 13.6668 11 13.6668Z" fill="#212529"/>
</svg>
