<svg width="60" height="60" viewBox="0 0 60 60" fill="none" xmlns="http://www.w3.org/2000/svg">
<path d="M60 30C60 46.5688 46.5688 60 30 60C13.4312 60 0 46.5688 0 30C0 13.4312 13.4312 0 30 0C46.5688 0 60 13.4312 60 30Z" fill="#FFEB00"/>
<path d="M60 30C60 13.4312 46.5688 0 30 0V60C46.5688 60 60 46.5688 60 30Z" fill="#FFBB00"/>
<path d="M50.0701 19.3419C48.2294 17.5017 45.7822 16.4878 43.1798 16.4878C40.577 16.4878 38.1298 17.5017 36.2891 19.3419L36.2882 19.3429C35.6015 20.0295 35.602 21.1419 36.2887 21.8285C36.9753 22.5152 38.0886 22.5143 38.7752 21.8281C39.9517 20.6516 41.5159 20.0034 43.1798 20.0034C44.8433 20.0034 46.4075 20.6516 47.5853 21.829C48.272 22.5152 49.3848 22.5147 50.071 21.8281C50.7572 21.1414 50.7567 20.0281 50.0701 19.3419Z" fill="#132C63"/>
<path d="M23.7107 19.3419C21.87 17.5017 19.4228 16.4878 16.82 16.4878C14.2176 16.4878 11.7704 17.5017 9.92973 19.3419L9.92882 19.3429C9.24217 20.0295 9.24263 21.1419 9.92928 21.8285C10.6159 22.5152 11.7292 22.5143 12.4154 21.8281C13.5923 20.6516 15.1565 20.0034 16.82 20.0034C18.484 20.0034 20.0481 20.6516 21.226 21.829C21.9126 22.5152 23.0254 22.5147 23.7116 21.8281C24.3978 21.1414 24.3974 20.0281 23.7107 19.3419Z" fill="#132C63"/>
<path d="M48.8284 28.4766H11.1719C10.2014 28.4766 9.41406 29.2635 9.41406 30.2344C9.41406 41.6039 18.6307 50.8205 30.0002 50.8205C41.3696 50.8205 50.5862 41.6039 50.5862 30.2344C50.5862 29.2635 49.7989 28.4766 48.8284 28.4766Z" fill="#EDF6FF"/>
<path d="M48.8283 28.4766H30V50.8205C41.3695 50.8205 50.5861 41.6039 50.5861 30.2344C50.5861 29.2635 49.7987 28.4766 48.8283 28.4766Z" fill="#D5E9FF"/>
</svg>
