<svg width="49" height="41" viewBox="0 0 49 41" fill="none" xmlns="http://www.w3.org/2000/svg">
<path d="M27 3C27.7417 3 28.4667 3.21993 29.0834 3.63199C29.7001 4.04404 30.1807 4.62971 30.4646 5.31494C30.7484 6.00016 30.8226 6.75416 30.6779 7.48159C30.5333 8.20902 30.1761 8.8772 29.6517 9.40165C29.1272 9.9261 28.459 10.2833 27.7316 10.4279C27.0042 10.5726 26.2502 10.4984 25.5649 10.2145C24.8797 9.93072 24.294 9.45007 23.882 8.83339C23.4699 8.2167 23.25 7.49168 23.25 6.75C23.25 5.75544 23.6451 4.80161 24.3484 4.09835C25.0516 3.39509 26.0054 3 27 3V3ZM27 1.5C25.9617 1.5 24.9466 1.80791 24.0833 2.38478C23.2199 2.96166 22.547 3.7816 22.1496 4.74091C21.7523 5.70022 21.6483 6.75582 21.8509 7.77422C22.0535 8.79262 22.5535 9.72809 23.2877 10.4623C24.0219 11.1965 24.9574 11.6966 25.9758 11.8991C26.9942 12.1017 28.0498 11.9977 29.0091 11.6004C29.9684 11.203 30.7883 10.5301 31.3652 9.66674C31.9421 8.80339 32.25 7.78835 32.25 6.75C32.25 5.35761 31.6969 4.02226 30.7123 3.03769C29.7277 2.05312 28.3924 1.5 27 1.5V1.5Z" fill="#60B939"/>
<path d="M34.5 22.5H33V18.75C33 17.7554 32.6049 16.8016 31.9017 16.0983C31.1984 15.3951 30.2446 15 29.25 15H24.75C23.7554 15 22.8016 15.3951 22.0983 16.0983C21.3951 16.8016 21 17.7554 21 18.75V22.5H19.5V18.75C19.5 17.3576 20.0531 16.0223 21.0377 15.0377C22.0223 14.0531 23.3576 13.5 24.75 13.5H29.25C30.6424 13.5 31.9777 14.0531 32.9623 15.0377C33.9469 16.0223 34.5 17.3576 34.5 18.75V22.5Z" fill="#60B939"/>
<path d="M4.33008 38H3.27539V30.4941H0.550781V29.5449H7.05469V30.4941H4.33008V38ZM8.97109 37.2266C9.49062 37.2266 9.92031 37.0762 10.2602 36.7754C10.6039 36.4746 10.7758 36.0977 10.7758 35.6445V35.0645L9.07656 35.1758C8.6 35.207 8.25039 35.3066 8.02773 35.4746C7.80508 35.6426 7.69375 35.8867 7.69375 36.207C7.69375 36.5234 7.81289 36.7734 8.05117 36.957C8.28945 37.1367 8.59609 37.2266 8.97109 37.2266ZM8.78359 38.1113C8.1625 38.1113 7.65078 37.9414 7.24844 37.6016C6.85 37.2578 6.65078 36.8008 6.65078 36.2305C6.65078 35.668 6.85 35.2266 7.24844 34.9062C7.64687 34.5859 8.21523 34.4043 8.95352 34.3613L10.7758 34.25V33.6758C10.7758 33.2852 10.6547 32.9863 10.4125 32.7793C10.1703 32.5723 9.81484 32.4688 9.34609 32.4688C8.96719 32.4688 8.65273 32.5371 8.40273 32.6738C8.15273 32.8105 7.99258 33.0039 7.92227 33.2539H6.90273C6.96914 32.75 7.22891 32.3438 7.68203 32.0352C8.13906 31.7266 8.70547 31.5723 9.38125 31.5723C10.1469 31.5723 10.7387 31.7578 11.1566 32.1289C11.5746 32.5 11.7836 33.0156 11.7836 33.6758V38H10.8227V37.0684H10.7289C10.5258 37.4043 10.2562 37.6621 9.92031 37.8418C9.58437 38.0215 9.20547 38.1113 8.78359 38.1113ZM10.0961 30.5996H8.95937L7.33047 28.6191H8.61953L10.0961 30.5996ZM13.0203 38V31.6836H14.0281V38H13.0203ZM14.0223 30.1953C13.8855 30.332 13.7195 30.4004 13.5242 30.4004C13.3289 30.4004 13.1629 30.332 13.0262 30.1953C12.8895 30.0547 12.8211 29.8887 12.8211 29.6973C12.8211 29.5059 12.8895 29.3418 13.0262 29.2051C13.1629 29.0645 13.3289 28.9941 13.5242 28.9941C13.7195 28.9941 13.8855 29.0645 14.0223 29.2051C14.159 29.3418 14.2273 29.5059 14.2273 29.6973C14.2273 29.8887 14.159 30.0547 14.0223 30.1953ZM19.1969 34.4434L21.9391 31.6836H23.1754L20.4566 34.3906L23.357 38H22.0738L19.7066 35.041L19.1031 35.6035V38H18.0953V29.1758H19.1031V34.4434H19.1969ZM23.9609 38V29.1758H24.9688V32.6797H25.0625C25.2227 32.3242 25.4668 32.0508 25.7949 31.8594C26.127 31.668 26.5312 31.5723 27.0078 31.5723C27.6797 31.5723 28.2109 31.7793 28.6016 32.1934C28.9922 32.6035 29.1875 33.1758 29.1875 33.9102V38H28.1797V34.1562C28.1797 33.0391 27.6934 32.4805 26.7207 32.4805C26.166 32.4805 25.7344 32.6426 25.4258 32.9668C25.1211 33.2871 24.9688 33.7188 24.9688 34.2617V38H23.9609ZM35.1 37.2383C34.5805 37.8203 33.8715 38.1113 32.973 38.1113C32.0746 38.1113 31.3637 37.8203 30.8402 37.2383C30.3207 36.6523 30.0609 35.8535 30.0609 34.8418C30.0609 33.8262 30.3207 33.0273 30.8402 32.4453C31.3598 31.8633 32.0707 31.5723 32.973 31.5723C33.8754 31.5723 34.5863 31.8633 35.1059 32.4453C35.6254 33.0273 35.8852 33.8262 35.8852 34.8418C35.8852 35.8535 35.6234 36.6523 35.1 37.2383ZM31.5902 36.5879C31.9145 36.998 32.3754 37.2031 32.973 37.2031C33.5707 37.2031 34.0316 36.998 34.3559 36.5879C34.6801 36.1738 34.8422 35.5918 34.8422 34.8418C34.8422 34.0918 34.6801 33.5117 34.3559 33.1016C34.0316 32.6875 33.5707 32.4805 32.973 32.4805C32.3754 32.4805 31.9145 32.6875 31.5902 33.1016C31.266 33.5117 31.1039 34.0918 31.1039 34.8418C31.1039 35.5918 31.266 36.1738 31.5902 36.5879ZM38.7625 37.2266C39.282 37.2266 39.7117 37.0762 40.0516 36.7754C40.3953 36.4746 40.5672 36.0977 40.5672 35.6445V35.0645L38.868 35.1758C38.3914 35.207 38.0418 35.3066 37.8191 35.4746C37.5965 35.6426 37.4852 35.8867 37.4852 36.207C37.4852 36.5234 37.6043 36.7734 37.8426 36.957C38.0809 37.1367 38.3875 37.2266 38.7625 37.2266ZM38.575 38.1113C37.9539 38.1113 37.4422 37.9414 37.0398 37.6016C36.6414 37.2578 36.4422 36.8008 36.4422 36.2305C36.4422 35.668 36.6414 35.2266 37.0398 34.9062C37.4383 34.5859 38.0066 34.4043 38.7449 34.3613L40.5672 34.25V33.6758C40.5672 33.2852 40.4461 32.9863 40.2039 32.7793C39.9617 32.5723 39.6063 32.4688 39.1375 32.4688C38.7586 32.4688 38.4441 32.5371 38.1941 32.6738C37.9441 32.8105 37.784 33.0039 37.7137 33.2539H36.6941C36.7605 32.75 37.0203 32.3438 37.4734 32.0352C37.9305 31.7266 38.4969 31.5723 39.1727 31.5723C39.9383 31.5723 40.5301 31.7578 40.948 32.1289C41.366 32.5 41.575 33.0156 41.575 33.6758V38H40.6141V37.0684H40.5203C40.3172 37.4043 40.0477 37.6621 39.7117 37.8418C39.3758 38.0215 38.9969 38.1113 38.575 38.1113ZM38.3348 29.4395V28.7188C38.5379 28.6367 38.7996 28.5957 39.1199 28.5957C39.534 28.5957 39.8602 28.6934 40.0984 28.8887C40.3367 29.0801 40.4559 29.3418 40.4559 29.6738C40.4559 29.9434 40.3543 30.1973 40.1512 30.4355C39.948 30.6738 39.6863 30.8457 39.366 30.9512L38.9266 30.3711C39.118 30.3164 39.2742 30.2305 39.3953 30.1133C39.5203 29.9922 39.5828 29.8691 39.5828 29.7441C39.5828 29.6191 39.5262 29.5156 39.4129 29.4336C39.3035 29.3477 39.1648 29.3047 38.9969 29.3047C38.7273 29.3047 38.5066 29.3496 38.3348 29.4395ZM42.7883 38V31.6836H43.7492V32.6797H43.843C44.1789 31.9414 44.8117 31.5723 45.7414 31.5723C46.4484 31.5723 46.9934 31.7754 47.3762 32.1816C47.759 32.584 47.9504 33.1602 47.9504 33.9102V38H46.9426V34.1562C46.9426 33.5898 46.8195 33.1699 46.5734 32.8965C46.3312 32.6191 45.9582 32.4805 45.4543 32.4805C44.9465 32.4805 44.5422 32.6406 44.2414 32.9609C43.9445 33.2773 43.7961 33.7109 43.7961 34.2617V38H42.7883Z" fill="#60B939"/>
</svg>
